<svg width="20" height="20" viewBox="0 0 20 20" fill="none" xmlns="http://www.w3.org/2000/svg">
<path d="M14.2792 4.14142C14.2792 1.85813 12.359 0 9.99895 0C7.63895 0 5.71875 1.85813 5.71875 4.14142C5.71875 6.42471 7.63895 8.28218 9.99895 8.28218C12.359 8.28218 14.2792 6.42472 14.2792 4.14142ZM7.125 4.14142C7.125 2.60815 8.41417 1.36054 9.99895 1.36054C11.5837 1.36054 12.8729 2.60815 12.8729 4.14142C12.8729 5.67469 11.5837 6.92163 9.99895 6.92163C8.41417 6.92163 7.125 5.67469 7.125 4.14142Z" fill="#007F65"/>
<path d="M1 15.1703V16.6809C1 18.5111 2.83169 20 5.08336 20H14.9166C17.1683 20 19 18.5111 19 16.6809V15.1703C19 11.832 15.6583 9.11566 11.5509 9.11566H8.44908C4.34172 9.11566 1 11.832 1 15.1703ZM9.5348 10.4249H10.4652L11.2607 15.013L10 15.8396L8.73928 15.013L9.5348 10.4249ZM7.90415 10.4473L7.08061 15.1978C7.04129 15.426 7.15179 15.6542 7.37239 15.7987L9.4943 17.1904C9.64177 17.2869 9.82108 17.3355 10 17.3355C10.1789 17.3355 10.3582 17.2869 10.5057 17.1904L12.6276 15.7987C12.8482 15.6542 12.9587 15.426 12.9194 15.1978L12.0959 10.4473C15.0604 10.6716 17.3893 12.7032 17.3893 15.1703V16.6809C17.3893 17.7894 16.28 18.6908 14.9166 18.6908H5.08336C3.72002 18.6908 2.6107 17.7894 2.6107 16.6809V15.1703C2.6107 12.7032 4.93959 10.6716 7.90415 10.4473Z" fill="#007F65"/>
</svg>
