<svg width="20" height="20" viewBox="0 0 20 20" fill="none" xmlns="http://www.w3.org/2000/svg">
<path d="M13.6211 3.39152V1H6.37891V3.39152H1V19H19V3.39152H13.6211ZM7.43359 2.19482H12.5664V3.39152H7.43359V2.19482ZM17.9453 17.8053H2.05469V10.8295C2.96353 12.1433 4.37679 12.989 5.96101 12.989H7.71347V14.1848H12.2865V12.989H14.039C15.6232 12.989 17.0365 12.1433 17.9453 10.8295V17.8053ZM8.76816 12.9899V11.7932H11.2318V12.9899H8.76816ZM14.039 11.7942H12.2865V10.5984H7.71347V11.7942H5.96101C3.80714 11.7942 2.05469 9.80903 2.05469 7.36882V4.5865H17.9453V7.36882C17.9453 9.80903 16.1929 11.7942 14.039 11.7942Z" fill="black"/>
</svg>
