<svg width="20" height="20" viewBox="0 0 20 20" fill="none" xmlns="http://www.w3.org/2000/svg">
<g clip-path="url(#clip0_382_2090)">
<path d="M16.5859 0H2.58594C2.26234 0 2 0.262344 2 0.585938V16.2761C2 16.5996 2.26234 16.862 2.58594 16.862H9.09637V19.4141C9.09637 19.6171 9.20148 19.8057 9.37426 19.9125C9.54699 20.0192 9.76262 20.0289 9.94434 19.9382L11.5651 19.1278L13.1859 19.9382C13.3676 20.029 13.5832 20.0193 13.756 19.9125C13.9288 19.8057 14.0339 19.6171 14.0339 19.4141V16.862H16.5859C16.9095 16.862 17.1719 16.5996 17.1719 16.2761V0.585938C17.1719 0.262344 16.9095 0 16.5859 0ZM11.5651 14.4349C10.5039 14.4349 9.64062 13.5716 9.64062 12.5104C9.64062 11.4492 10.5039 10.5859 11.5651 10.5859C12.6263 10.5859 13.4896 11.4493 13.4896 12.5104C13.4896 13.5716 12.6263 14.4349 11.5651 14.4349ZM12.862 18.466L11.8271 17.9486C11.6622 17.8661 11.468 17.8661 11.3031 17.9486L10.2682 18.466V15.3211C10.663 15.5039 11.1022 15.6068 11.5651 15.6068C12.028 15.6068 12.4672 15.504 12.862 15.3211V18.466ZM16 15.6901H14.0339V14.3767C14.4274 13.8573 14.6614 13.2108 14.6614 12.5104C14.6614 10.8031 13.2724 9.41406 11.5651 9.41406C9.85773 9.41406 8.46875 10.8031 8.46875 12.5104C8.46875 13.2108 8.70277 13.8573 9.09633 14.3767V15.6901H3.17188V1.17188H16V15.6901Z" fill="#007F65"/>
<path d="M5.46992 5H14.5301C14.7896 5 15 4.77613 15 4.5C15 4.22387 14.7896 4 14.5301 4H5.46992C5.2104 4 5 4.22387 5 4.5C5 4.77613 5.2104 5 5.46992 5Z" fill="#007F65"/>
<path d="M5.46992 8H14.5301C14.7896 8 15 7.77613 15 7.5C15 7.22387 14.7896 7 14.5301 7H5.46992C5.2104 7 5 7.22387 5 7.5C5 7.77613 5.2104 8 5.46992 8Z" fill="#007F65"/>
<path d="M5.14098 11H7.85902C7.93688 11 8 10.7761 8 10.5C8 10.2239 7.93688 10 7.85902 10H5.14098C5.06312 10 5 10.2239 5 10.5C5 10.7761 5.06312 11 5.14098 11Z" fill="#007F65"/>
</g>
<defs>
<clipPath id="clip0_382_2090">
<rect width="20" height="20" fill="white"/>
</clipPath>
</defs>
</svg>
