<svg width="20" height="20" viewBox="0 0 20 20" fill="none" xmlns="http://www.w3.org/2000/svg">
<path d="M1.17383 17.5V15.8333C1.17383 14.9493 1.52502 14.1014 2.15014 13.4763C2.77526 12.8512 3.62311 12.5 4.50716 12.5L8.27939 12.5" stroke="#007F65" stroke-width="1.14286" stroke-linecap="round" stroke-linejoin="round"/>
<path d="M7.84041 9.16667C9.68136 9.16667 11.1737 7.67428 11.1737 5.83333C11.1737 3.99238 9.68136 2.5 7.84041 2.5C5.99946 2.5 4.50708 3.99238 4.50708 5.83333C4.50708 7.67428 5.99946 9.16667 7.84041 9.16667Z" stroke="#007F65" stroke-width="1.14286" stroke-linecap="round" stroke-linejoin="round"/>
<path d="M12.4952 12.4681L9.98901 12.4682V14.4682V17.5L18.2557 17.5V14.4682V12.4681H15.9099M12.4952 12.4681V10.8578L15.9099 10.8578V12.4681M12.4952 12.4681H15.9099" stroke="#007F65" stroke-width="1.14286" stroke-linecap="round" stroke-linejoin="round"/>
</svg>
