<svg width="31" height="31" viewBox="0 0 31 31" fill="none" xmlns="http://www.w3.org/2000/svg">
<path d="M21.4121 2.99976H8.91211C5.46033 2.99976 2.66211 5.79798 2.66211 9.24976V21.7498C2.66211 25.2015 5.46033 27.9998 8.91211 27.9998H21.4121C24.8639 27.9998 27.6621 25.2015 27.6621 21.7498V9.24976C27.6621 5.79798 24.8639 2.99976 21.4121 2.99976Z" stroke="#007F65" stroke-width="2" stroke-linecap="round" stroke-linejoin="round"/>
<path d="M20.1622 14.7126C20.3165 15.7529 20.1388 16.8154 19.6544 17.7489C19.1701 18.6824 18.4037 19.4394 17.4643 19.9122C16.5249 20.3851 15.4603 20.5496 14.422 20.3825C13.3836 20.2155 12.4244 19.7252 11.6808 18.9816C10.9371 18.2379 10.4469 17.2787 10.2798 16.2404C10.1127 15.2021 10.2773 14.1375 10.7501 13.1981C11.223 12.2587 11.98 11.4923 12.9135 11.0079C13.847 10.5236 14.9094 10.3459 15.9497 10.5001C17.0109 10.6575 17.9933 11.152 18.7519 11.9105C19.5104 12.6691 20.0049 13.6515 20.1622 14.7126Z" stroke="#007F65" stroke-width="2" stroke-linecap="round" stroke-linejoin="round"/>
<path d="M22.0371 8.62476H22.0471" stroke="#007F65" stroke-width="2" stroke-linecap="round" stroke-linejoin="round"/>
</svg>
