<svg width="20" height="20" viewBox="0 0 20 20" fill="none" xmlns="http://www.w3.org/2000/svg">
<path d="M13.333 6.66666C14.6591 6.66666 15.9309 7.19345 16.8685 8.13113C17.8062 9.06881 18.333 10.3406 18.333 11.6667V17.5H14.9997V11.6667C14.9997 11.2246 14.8241 10.8007 14.5115 10.4882C14.199 10.1756 13.775 10 13.333 10C12.891 10 12.4671 10.1756 12.1545 10.4882C11.8419 10.8007 11.6663 11.2246 11.6663 11.6667V17.5H8.33301V11.6667C8.33301 10.3406 8.85979 9.06881 9.79747 8.13113C10.7352 7.19345 12.0069 6.66666 13.333 6.66666Z" stroke="#007F65" stroke-width="1.1" stroke-linecap="round" stroke-linejoin="round"/>
<path d="M5.00033 7.5H1.66699V17.5H5.00033V7.5Z" stroke="#007F65" stroke-width="1.1" stroke-linecap="round" stroke-linejoin="round"/>
<path d="M3.33366 5C4.25413 5 5.00033 4.25381 5.00033 3.33333C5.00033 2.41286 4.25413 1.66666 3.33366 1.66666C2.41318 1.66666 1.66699 2.41286 1.66699 3.33333C1.66699 4.25381 2.41318 5 3.33366 5Z" stroke="#007F65" stroke-width="1.1" stroke-linecap="round" stroke-linejoin="round"/>
</svg>
