<svg width="15" height="14" viewBox="0 0 15 14" fill="none" xmlns="http://www.w3.org/2000/svg">
<path d="M10.7618 1.08709C10.9327 0.916163 11.1356 0.780578 11.359 0.688073C11.5823 0.595569 11.8217 0.547958 12.0634 0.547958C12.3051 0.547958 12.5445 0.595569 12.7678 0.688073C12.9911 0.780578 13.194 0.916163 13.365 1.08709C13.5359 1.25801 13.6715 1.46093 13.764 1.68426C13.8565 1.90758 13.9041 2.14694 13.9041 2.38866C13.9041 2.63039 13.8565 2.86974 13.764 3.09307C13.6715 3.31639 13.5359 3.51931 13.365 3.69024L4.57933 12.4759L1 13.452L1.97618 9.87271L10.7618 1.08709Z" stroke="#7F7F7F" stroke-width="0.976181" stroke-linecap="round" stroke-linejoin="round"/>
</svg>
