<svg width="27" height="27" viewBox="0 0 27 27" fill="none" xmlns="http://www.w3.org/2000/svg">
<path d="M24.7491 19.035V22.41C24.7504 22.7233 24.6862 23.0334 24.5607 23.3205C24.4352 23.6076 24.2511 23.8653 24.0202 24.0771C23.7893 24.2889 23.5168 24.4502 23.22 24.5505C22.9232 24.6509 22.6087 24.6882 22.2966 24.66C18.8348 24.2838 15.5095 23.1009 12.5879 21.2063C9.86969 19.479 7.56513 17.1744 5.83788 14.4563C3.93661 11.5214 2.7534 8.17987 2.38413 4.7025C2.35602 4.3914 2.39299 4.07786 2.49269 3.78183C2.5924 3.4858 2.75265 3.21378 2.96324 2.98308C3.17384 2.75237 3.43016 2.56805 3.7159 2.44184C4.00163 2.31563 4.31051 2.2503 4.62288 2.25H7.99788C8.54385 2.24463 9.07315 2.43797 9.48711 2.79398C9.90108 3.14999 10.1715 3.64438 10.2479 4.185C10.3903 5.26508 10.6545 6.32557 11.0354 7.34625C11.1867 7.74892 11.2195 8.18653 11.1298 8.60724C11.0401 9.02795 10.8316 9.41413 10.5291 9.72L9.10038 11.1488C10.7019 13.9652 13.0339 16.2973 15.8504 17.8988L17.2791 16.47C17.585 16.1675 17.9712 15.9591 18.3919 15.8694C18.8126 15.7796 19.2502 15.8124 19.6529 15.9638C20.6736 16.3446 21.7341 16.6088 22.8141 16.7513C23.3606 16.8283 23.8597 17.1036 24.2165 17.5247C24.5733 17.9458 24.7628 18.4833 24.7491 19.035Z" stroke="#007F65" stroke-width="2" stroke-linecap="round" stroke-linejoin="round"/>
</svg>
