<svg width="31" height="31" viewBox="0 0 31 31" fill="none" xmlns="http://www.w3.org/2000/svg">
<g clip-path="url(#clip0_382_2928)">
<path d="M28.3373 8.52476C28.1888 7.93152 27.8864 7.38797 27.4607 6.94901C27.0349 6.51006 26.5008 6.19124 25.9123 6.02476C23.7623 5.49976 15.1623 5.49976 15.1623 5.49976C15.1623 5.49976 6.56234 5.49976 4.41234 6.07476C3.82389 6.24124 3.28981 6.56006 2.86402 6.99901C2.43823 7.43797 2.13582 7.98152 1.98734 8.57476C1.59385 10.7567 1.40138 12.9701 1.41234 15.1873C1.39831 17.4211 1.5908 19.6514 1.98734 21.8498C2.15103 22.4246 2.46022 22.9474 2.88502 23.3679C3.30981 23.7883 3.83586 24.092 4.41234 24.2498C6.56234 24.8248 15.1623 24.8248 15.1623 24.8248C15.1623 24.8248 23.7623 24.8248 25.9123 24.2498C26.5008 24.0833 27.0349 23.7645 27.4607 23.3255C27.8864 22.8865 28.1888 22.343 28.3373 21.7498C28.7278 19.5842 28.9202 17.3877 28.9123 15.1873C28.9264 12.9535 28.7339 10.7231 28.3373 8.52476Z" stroke="#007F65" stroke-width="2" stroke-linecap="round" stroke-linejoin="round"/>
<path d="M12.3496 19.2749L19.5371 15.1874L12.3496 11.0999V19.2749Z" stroke="#007F65" stroke-width="2" stroke-linecap="round" stroke-linejoin="round"/>
</g>
<defs>
<clipPath id="clip0_382_2928">
<rect width="30" height="30" fill="white" transform="translate(0.162109 0.5)"/>
</clipPath>
</defs>
</svg>
